HIERARCHY
ROOT Hips
{
	OFFSET -0.001795 -0.223333 0.028219
	CHANNELS 6 Xposition Yposition Zposition Zrotation Yrotation Xrotation 
	JOINT LeftUpLeg
	{
		OFFSET 0.069520 -0.091406 -0.006815
		CHANNELS 3 Zrotation Yrotation Xrotation
		JOINT LeftLeg
		{
			OFFSET 0.034277 -0.375199 -0.004496
			CHANNELS 3 Zrotation Yrotation Xrotation
			JOINT LeftFoot
			{
				OFFSET -0.013596 -0.397961 -0.043693
				CHANNELS 3 Zrotation Yrotation Xrotation
				JOINT LeftToe
				{
					OFFSET 0.026358 -0.055791 0.119288
					CHANNELS 3 Zrotation Yrotation Xrotation
					End Site
					{
						OFFSET 0.000000 0.000000 0.000000
					}
				}
			}
		}
	}
	JOINT RightUpLeg
	{
		OFFSET -0.067670 -0.090522 -0.004320
		CHANNELS 3 Zrotation Yrotation Xrotation
		JOINT RightLeg
		{
			OFFSET -0.038290 -0.382569 -0.008850
			CHANNELS 3 Zrotation Yrotation Xrotation
			JOINT RightFoot
			{
				OFFSET 0.015774 -0.398415 -0.042312
				CHANNELS 3 Zrotation Yrotation Xrotation
				JOINT RightToe
				{
					OFFSET -0.025372 -0.048144 0.123348
					CHANNELS 3 Zrotation Yrotation Xrotation
					End Site
					{
						OFFSET 0.000000 0.000000 0.000000
					}
				}
			}
		}
	}
	JOINT Spine
	{
		OFFSET -0.002533 0.108963 -0.026696
		CHANNELS 3 Zrotation Yrotation Xrotation
		JOINT Spine1
		{
			OFFSET 0.005487 0.135180 0.001092
			CHANNELS 3 Zrotation Yrotation Xrotation
			JOINT Spine2
			{
				OFFSET 0.001457 0.052922 0.025425
				CHANNELS 3 Zrotation Yrotation Xrotation
				JOINT Neck
				{
					OFFSET -0.002778 0.213870 -0.042857
					CHANNELS 3 Zrotation Yrotation Xrotation
					JOINT Head
					{
						OFFSET 0.005152 0.064970 0.051349
						CHANNELS 3 Zrotation Yrotation Xrotation
						End Site
						{
							OFFSET 0.000000 0.000000 0.000000
						}
					}
				}
				JOINT LeftShoulder
				{
					OFFSET 0.078845 0.121749 -0.034090
					CHANNELS 3 Zrotation Yrotation Xrotation
					JOINT LeftArm
					{
						OFFSET 0.090977 0.030469 -0.008868
						CHANNELS 3 Zrotation Yrotation Xrotation
						JOINT LeftForeArm
						{
							OFFSET 0.259612 -0.012772 -0.027456
							CHANNELS 3 Zrotation Yrotation Xrotation
							JOINT LeftHand
							{
								OFFSET 0.249234 0.008986 -0.001171
								CHANNELS 3 Zrotation Yrotation Xrotation
								End Site
								{
									OFFSET 0.000000 0.000000 0.000000
								}
							}
						}
					}
				}
				JOINT RightShoulder
				{
					OFFSET -0.081759 0.118833 -0.038615
					CHANNELS 3 Zrotation Yrotation Xrotation
					JOINT RightArm
					{
						OFFSET -0.096012 0.032551 -0.009143
						CHANNELS 3 Zrotation Yrotation Xrotation
						JOINT RightForeArm
						{
							OFFSET -0.253742 -0.013329 -0.021401
							CHANNELS 3 Zrotation Yrotation Xrotation
							JOINT RightHand
							{
								OFFSET -0.255298 0.007772 -0.005559
								CHANNELS 3 Zrotation Yrotation Xrotation
								End Site
								{
									OFFSET 0.000000 0.000000 0.000000
								}
							}
						}
					}
				}
			}
		}
	}
}
MOTION
Frames: 17
Frame Time: 0.050000
-0.010003 0.956283 -0.099519 -2.444901 14.247795 12.325277 9.500351 -0.989400 -14.438994 4.349368 0.123404 -7.609999 -7.712354 -1.008152 21.666320 0.000000 0.000000 0.000000 1.347374 1.766591 -19.805682 0.232888 0.119853 8.800399 -4.706505 -12.028535 9.872565 0.000000 0.000000 0.000000 -7.126829 0.363016 7.427153 -5.388952 2.370609 -1.985568 -4.561386 13.492904 6.210872 12.886468 -8.267407 -5.824562 0.000000 0.000000 0.000000 25.629194 -25.226616 8.628849 10.267574 -36.830819 -7.884195 28.531687 -5.660708 -2.720110 0.000000 0.000000 0.000000 -37.881599 41.310393 1.879257 -25.457885 36.387487 -5.079256 -17.350681 15.328776 -0.980612 0.000000 0.000000 0.000000 
-0.011050 0.956371 -0.098447 -2.426174 15.899798 12.670058 9.457003 -1.076182 -15.104318 4.457584 0.124289 -7.646559 -8.392683 -1.622966 21.817320 0.000000 0.000000 0.000000 1.485571 1.748425 -19.999877 0.221708 0.097627 8.770463 -5.665219 -13.761235 10.412258 0.000000 0.000000 0.000000 -7.709457 0.407761 8.005089 -5.411946 2.382697 -2.786387 -3.573869 13.327739 6.765840 12.620508 -7.380721 -7.467770 0.000000 0.000000 0.000000 27.477649 -23.551479 8.697155 13.890930 -37.166396 -9.359439 26.435580 -3.317178 -1.966802 0.000000 0.000000 0.000000 -41.047304 41.008267 0.679002 -28.543029 36.244649 -5.437760 -17.790033 10.952550 -0.542585 0.000000 0.000000 0.000000 
-0.011961 0.957333 -0.097477 -2.634838 16.861454 12.814235 9.476418 -1.119549 -15.333011 4.455325 0.129387 -7.743606 -8.924477 -2.107948 22.021824 0.000000 0.000000 0.000000 1.794418 1.774636 -20.254171 0.587149 0.005508 8.768348 -5.920536 -14.127747 10.894405 0.000000 0.000000 0.000000 -8.128962 0.437189 8.295552 -5.587774 2.460740 -3.551633 -2.905398 13.614963 7.346521 12.729696 -7.403776 -7.578570 0.000000 0.000000 0.000000 29.686868 -22.257229 8.825032 17.675220 -37.521404 -11.021816 24.726902 -0.729074 -1.308234 0.000000 0.000000 0.000000 -42.591784 40.682979 0.030383 -31.433808 35.786575 -5.672346 -16.610933 6.849066 -0.080063 0.000000 0.000000 0.000000 
-0.012778 0.957535 -0.096646 -2.954693 18.095167 13.177086 9.965254 -1.191515 -16.175121 4.176041 0.120154 -7.427783 -9.332798 -2.612251 21.851752 0.000000 0.000000 0.000000 2.149154 1.815014 -20.784460 0.645370 -0.026362 8.890294 -6.436028 -14.939688 11.713502 0.000000 0.000000 0.000000 -8.509348 0.466489 8.519148 -5.399206 2.385030 -3.778642 -2.185823 13.472766 7.518637 12.494480 -7.062549 -7.913527 0.000000 0.000000 0.000000 31.874870 -20.539623 8.964606 20.772702 -37.872983 -12.469304 23.309058 1.824827 -0.767387 0.000000 0.000000 0.000000 -44.739005 39.792861 -0.768078 -33.591315 35.963541 -5.886355 -15.382661 3.510240 0.240053 0.000000 0.000000 0.000000 
-0.013427 0.958245 -0.095868 -3.545654 18.832208 13.193714 10.487817 -1.224517 -16.633803 4.396202 0.102574 -7.152326 -9.714734 -2.978271 21.986734 0.000000 0.000000 0.000000 2.987078 1.910537 -20.719983 0.513190 -0.005443 8.439791 -6.378331 -14.683583 12.358190 0.000000 0.000000 0.000000 -8.547427 0.459604 8.883121 -5.521703 2.444321 -4.546997 -1.764926 13.551774 7.980655 12.571436 -7.084528 -7.974131 0.000000 0.000000 0.000000 33.078715 -20.053274 9.060589 23.969555 -37.761104 -13.778969 22.474787 4.455538 -0.295484 0.000000 0.000000 0.000000 -44.966760 39.360326 -0.961329 -35.306349 35.748375 -5.987537 -13.753402 1.750029 0.348094 0.000000 0.000000 0.000000 
-0.013612 0.958180 -0.095154 -4.091723 19.528159 13.270003 10.945329 -1.264328 -17.194595 4.468479 0.080342 -6.721626 -9.945281 -3.190916 22.043579 0.000000 0.000000 0.000000 3.610177 1.983809 -20.763056 0.521693 -0.016914 8.485234 -6.298667 -14.419492 12.792495 0.000000 0.000000 0.000000 -8.449844 0.443232 8.994362 -5.530653 2.455992 -5.103292 -1.098606 13.737126 8.074863 13.552338 -7.284977 -9.315810 0.000000 0.000000 0.000000 33.444695 -19.874666 9.194514 26.134817 -38.230716 -15.026313 21.652400 6.328662 0.016088 0.000000 0.000000 0.000000 -44.945809 39.505007 -0.969524 -35.561544 36.184543 -6.056946 -13.416076 1.105762 0.380420 0.000000 0.000000 0.000000 
-0.013237 0.957766 -0.094425 -4.765207 19.671416 13.245684 11.509610 -1.258399 -17.311137 4.809717 0.069708 -6.681152 -9.799844 -3.019480 21.951822 0.000000 0.000000 0.000000 4.130390 2.067426 -20.973258 0.427515 0.002846 8.424243 -5.950871 -13.721030 13.047095 0.000000 0.000000 0.000000 -8.244981 0.422666 8.844747 -5.450755 2.432891 -5.591925 -0.626491 14.004832 8.465320 13.991325 -7.485553 -9.629475 0.000000 0.000000 0.000000 32.955121 -19.949940 9.197789 27.655711 -38.498493 -15.820710 20.983776 7.667791 0.223498 0.000000 0.000000 0.000000 -44.104935 39.767203 -0.741372 -35.876625 36.850799 -6.305511 -13.235992 1.131592 0.358906 0.000000 0.000000 0.000000 
-0.012119 0.957321 -0.093835 -5.061304 20.014556 13.176603 11.866039 -1.271787 -17.581539 4.558053 0.061344 -6.384630 -9.285633 -2.546979 21.381114 0.000000 0.000000 0.000000 4.341309 2.070216 -20.645898 0.353896 0.014868 8.299458 -5.983485 -13.774051 12.723129 0.000000 0.000000 0.000000 -8.033101 0.397895 8.844037 -5.286925 2.383700 -6.260105 -0.234706 14.293776 8.589342 14.958558 -7.952907 -10.256034 0.000000 0.000000 0.000000 32.443397 -20.084276 9.265899 28.059444 -39.271376 -16.490388 21.456594 8.081806 0.274140 0.000000 0.000000 0.000000 -42.273131 40.239871 -0.087356 -35.506500 38.234737 -6.703268 -14.218462 0.874511 0.392212 0.000000 0.000000 0.000000 
-0.010398 0.957444 -0.093471 -5.355789 20.108924 13.097226 12.065705 -1.263347 -17.408806 4.583415 0.064456 -6.456286 -9.190425 -2.548240 21.108590 0.000000 0.000000 0.000000 4.284407 2.032288 -20.186490 0.381845 0.010756 7.806540 -6.005680 -13.810405 12.628987 0.000000 0.000000 0.000000 -7.405145 0.335671 8.712564 -5.128361 2.326355 -6.307412 -0.090598 14.453225 8.201789 14.991346 -7.840863 -10.527177 0.000000 0.000000 0.000000 30.772531 -20.300886 9.243355 28.129279 -40.260709 -16.991028 22.379482 7.655457 0.239838 0.000000 0.000000 0.000000 -39.990865 41.147541 0.876556 -35.466813 39.631445 -7.303570 -16.017569 1.392612 0.370757 0.000000 0.000000 0.000000 
-0.008343 0.958218 -0.093596 -5.452466 20.115023 12.860135 11.948630 -1.259331 -17.328537 4.526024 0.036783 -5.914461 -9.035846 -2.700589 20.418150 0.000000 0.000000 0.000000 3.952476 1.933149 -19.300985 0.672825 -0.047548 7.257799 -5.989109 -13.804854 12.290349 0.000000 0.000000 0.000000 -7.042639 0.294224 8.676650 -4.573001 2.133327 -6.561162 -0.027914 14.837174 7.545244 16.403193 -8.472124 -11.519383 0.000000 0.000000 0.000000 29.946527 -20.924305 9.316251 25.945469 -41.137194 -16.545785 23.846869 5.992147 -0.071728 0.000000 0.000000 0.000000 -36.813862 42.057441 2.281608 -34.475684 41.445259 -7.822534 -18.220472 2.057624 0.316860 0.000000 0.000000 0.000000 
-0.006342 0.959038 -0.094313 -5.554685 19.752984 12.879748 11.989552 -1.232899 -17.056946 4.206088 0.052227 -6.033324 -8.710200 -2.509312 20.018174 0.000000 0.000000 0.000000 3.601923 1.886585 -19.124446 0.993073 -0.104665 6.790373 -6.213236 -14.256382 12.681842 0.000000 0.000000 0.000000 -6.518719 0.257302 8.032049 -4.063233 1.937308 -6.203107 -0.490933 14.794162 6.798175 16.893199 -8.666260 -11.927287 0.000000 0.000000 0.000000 29.214167 -21.443087 9.279135 23.768164 -41.627408 -15.743749 25.086330 3.761996 -0.503949 0.000000 0.000000 0.000000 -34.066151 42.868679 3.609176 -32.886169 42.678997 -8.063249 -21.138218 3.563699 0.136832 0.000000 0.000000 0.000000 
-0.004548 0.959551 -0.095440 -5.287195 19.334489 12.993336 12.011808 -1.206664 -16.790052 3.643623 0.069499 -6.071271 -8.208014 -1.818459 20.018796 0.000000 0.000000 0.000000 3.213034 1.821160 -18.759283 0.933064 -0.085795 6.319730 -6.087888 -14.057983 12.710014 0.000000 0.000000 0.000000 -6.044254 0.222436 7.646836 -3.470184 1.724121 -6.445876 -1.045274 14.483780 6.286508 18.144134 -9.251489 -12.818833 0.000000 0.000000 0.000000 29.541142 -22.253527 9.208499 20.441080 -41.606667 -14.207871 26.047463 0.892893 -1.143864 0.000000 0.000000 0.000000 -31.989713 43.307787 4.605431 -30.212279 43.674854 -7.830021 -23.681998 5.838302 -0.225751 0.000000 0.000000 0.000000 
-0.002768 0.959364 -0.096522 -5.205362 17.928666 12.529716 11.797158 -1.105586 -15.637147 3.455067 0.080922 -6.249596 -7.296349 -1.227631 18.995826 0.000000 0.000000 0.000000 2.893431 1.779013 -18.173890 0.984793 -0.080283 6.173653 -5.574749 -13.268882 12.494449 0.000000 0.000000 0.000000 -5.717187 0.204518 7.033962 -3.247547 1.620241 -5.894326 -0.897978 14.042433 6.235916 17.618745 -9.136020 -12.355128 0.000000 0.000000 0.000000 29.358560 -22.300746 8.939243 16.930884 -40.953964 -12.212662 26.685595 -2.356473 -1.864223 0.000000 0.000000 0.000000 -31.331192 43.044010 4.721388 -28.111165 45.180432 -7.799646 -25.743690 8.185926 -0.705323 0.000000 0.000000 0.000000 
-0.000733 0.959281 -0.097479 -4.719214 16.657726 12.178906 11.105272 -1.033739 -14.659544 3.333976 0.071939 -6.023387 -6.443394 -0.323642 18.595148 0.000000 0.000000 0.000000 2.153335 1.690076 -17.797534 0.669017 -0.006561 6.555055 -5.050529 -12.415987 12.519001 0.000000 0.000000 0.000000 -5.231770 0.162509 7.030647 -2.752843 1.441198 -6.340998 -1.416533 13.477000 5.688388 17.739310 -9.114005 -12.770380 0.000000 0.000000 0.000000 30.048641 -23.189839 8.707459 13.528068 -39.760421 -10.231247 25.545701 -5.114134 -2.294546 0.000000 0.000000 0.000000 -29.535066 43.375544 5.548754 -25.152743 45.080988 -7.171309 -26.521970 10.949882 -1.270993 0.000000 0.000000 0.000000 
0.002228 0.958836 -0.098220 -4.697659 14.491516 11.553641 10.663204 -0.927201 -13.734336 3.604076 0.012640 -5.136484 -5.099577 0.685456 17.206196 0.000000 0.000000 0.000000 1.689095 1.674435 -17.677635 0.371519 0.077904 7.183711 -4.164654 -10.989531 12.097735 0.000000 0.000000 0.000000 -4.565221 0.119879 6.304944 -2.126020 1.157379 -5.506314 -1.626471 12.657404 5.084400 16.738006 -8.332774 -13.181604 0.000000 0.000000 0.000000 30.674406 -22.890728 8.286836 11.372086 -39.202758 -8.912668 24.726214 -6.896676 -2.465337 0.000000 0.000000 0.000000 -29.526221 42.711216 5.360064 -22.187099 46.300828 -6.737388 -27.793684 12.635764 -1.714001 0.000000 0.000000 0.000000 
0.006341 0.958675 -0.099016 -4.343124 12.187016 10.635708 9.854709 -0.812737 -12.181328 3.672758 -0.036222 -4.479150 -3.615764 2.369864 16.667321 0.000000 0.000000 0.000000 1.293230 1.611499 -16.792493 -0.367746 0.249539 7.569174 -3.017762 -9.071819 12.033758 0.000000 0.000000 0.000000 -4.177965 0.087711 6.168640 -1.301199 0.835115 -6.009811 -1.567856 11.382421 5.054008 15.975218 -8.362090 -12.134213 0.000000 0.000000 0.000000 32.111657 -25.021018 7.629686 8.615589 -36.811734 -6.903102 23.893611 -8.763924 -2.597887 0.000000 0.000000 0.000000 -28.393168 42.140485 5.603970 -19.159564 46.179857 -6.153454 -28.205931 14.733078 -2.208854 0.000000 0.000000 0.000000 
0.011757 0.958813 -0.099593 -4.397012 9.852038 10.103048 9.331688 -0.720250 -11.023743 3.688433 -0.068342 -4.114741 -2.050423 3.873882 15.384786 0.000000 0.000000 0.000000 1.100470 1.602573 -16.395972 -0.753500 0.353281 7.857116 -2.202285 -7.780236 11.772751 0.000000 0.000000 0.000000 -3.705668 0.072761 5.062379 0.004214 0.244273 -5.038930 -1.313888 9.556696 4.339789 13.923616 -7.076749 -12.183746 0.000000 0.000000 0.000000 33.086783 -25.561763 6.900717 7.884143 -37.417186 -6.365659 24.278056 -9.329018 -2.534072 0.000000 0.000000 0.000000 -28.283604 41.107315 5.461451 -14.867286 46.733623 -5.272397 -29.313751 17.990840 -3.052598 0.000000 0.000000 0.000000 
